<?xml version="1.0" encoding="UTF-8" ?>
<!DOCTYPE svg PUBLIC "-//W3C//DTD SVG 1.1//EN" "http://www.w3.org/Graphics/SVG/1.1/DTD/svg11.dtd">
<svg width="1436pt" height="472pt" viewBox="0 0 1436 472" version="1.1" xmlns="http://www.w3.org/2000/svg">
<g id="#e6e6e6ff">
<path fill="#e6e6e6" opacity="1.00" d=" M 126.78 171.82 C 158.84 171.33 190.93 171.76 223.00 171.61 C 242.08 171.78 261.18 171.30 280.25 171.84 C 280.54 177.72 280.39 183.79 278.11 189.30 C 230.41 189.67 182.70 189.26 135.00 189.51 C 132.91 189.24 130.26 190.08 128.56 188.64 C 126.82 183.23 126.25 177.47 126.78 171.82 Z" />
<path fill="#e6e6e6" opacity="1.00" d=" M 1223.94 380.63 C 1224.64 380.66 1225.35 380.65 1226.08 380.61 C 1226.76 383.48 1227.78 386.26 1228.47 389.14 C 1227.25 391.59 1224.04 390.04 1221.95 390.23 C 1222.23 386.95 1223.16 383.80 1223.94 380.63 Z" />
</g>
<g id="#ffcc4dff">
<path fill="#ffcc4d" opacity="1.00" d=" M 687.43 50.75 C 702.42 49.40 717.62 48.80 732.58 50.80 C 740.97 53.21 749.72 54.92 757.37 59.32 C 783.86 70.79 804.94 93.19 816.53 119.44 C 819.89 126.59 822.12 134.24 823.24 142.06 C 823.86 147.05 825.40 151.92 825.31 156.99 C 825.08 167.33 826.02 177.80 823.72 187.99 C 820.05 205.52 812.55 222.35 801.42 236.44 C 796.14 242.78 790.85 249.21 784.22 254.22 C 774.81 262.38 764.02 269.01 752.35 273.41 C 744.42 276.22 736.50 279.49 727.99 279.92 C 718.75 281.71 709.32 281.56 699.95 281.26 C 692.96 280.47 686.07 278.93 679.13 277.73 C 673.03 276.66 667.72 273.32 662.03 271.09 C 650.27 266.42 639.59 259.24 630.30 250.71 C 615.54 236.34 603.21 218.74 598.20 198.54 C 593.81 187.59 593.37 175.64 593.66 164.00 C 593.28 152.76 594.65 141.44 598.05 130.70 C 604.14 113.52 613.01 96.98 626.15 84.14 C 637.44 72.23 651.62 63.44 666.54 56.80 C 673.18 53.80 680.36 52.35 687.43 50.75 M 664.33 133.41 C 657.86 134.60 654.57 141.12 652.62 146.76 C 650.58 154.09 650.92 162.41 654.71 169.15 C 656.62 172.70 659.27 176.34 663.34 177.51 C 668.50 179.50 674.76 177.36 677.88 172.85 C 683.01 166.13 684.43 157.20 682.94 149.00 C 682.15 143.57 678.67 138.90 674.57 135.43 C 671.76 133.04 667.82 132.69 664.33 133.41 M 748.38 133.42 C 744.40 134.59 741.35 137.77 739.21 141.20 C 733.96 150.25 734.21 162.24 739.92 171.02 C 741.70 173.82 744.05 176.51 747.35 177.49 C 753.28 179.85 760.06 176.51 763.26 171.31 C 769.86 160.95 768.81 146.42 760.99 136.99 C 757.78 133.76 752.82 132.26 748.38 133.42 M 660.45 205.27 C 656.76 207.50 657.02 213.23 660.26 215.71 C 661.89 216.88 664.03 216.63 665.94 216.77 C 694.98 216.75 724.02 216.75 753.06 216.77 C 755.37 216.72 758.18 216.86 759.60 214.63 C 762.98 211.08 760.21 203.83 755.06 204.43 C 725.37 204.31 695.67 204.47 665.98 204.35 C 664.14 204.51 662.01 204.11 660.45 205.27 Z" />
</g>
<g id="#da5d5eff">
<path fill="#da5d5e" opacity="1.00" d=" M 1163.33 65.39 C 1179.55 56.22 1198.54 53.06 1217.00 53.46 C 1227.87 53.22 1238.75 54.66 1249.24 57.49 C 1253.88 58.38 1258.33 60.07 1262.45 62.39 C 1267.25 65.14 1272.90 66.25 1277.30 69.72 C 1283.87 74.81 1291.24 78.92 1297.05 84.94 C 1302.34 90.35 1307.70 95.77 1311.94 102.07 C 1318.20 111.06 1324.03 120.67 1326.63 131.42 C 1329.10 139.75 1331.36 148.26 1331.46 157.01 C 1331.56 168.77 1332.09 180.86 1328.45 192.22 C 1327.51 195.25 1327.02 198.40 1326.59 201.53 C 1326.20 201.19 1325.82 200.84 1325.47 200.50 C 1324.77 207.37 1321.22 213.42 1317.57 219.10 C 1307.98 235.98 1293.94 250.22 1277.47 260.44 C 1274.06 262.36 1270.56 264.12 1267.19 266.12 C 1260.55 270.02 1252.91 271.54 1245.60 273.64 C 1233.15 277.70 1219.89 276.41 1207.02 276.61 C 1197.20 276.80 1187.78 273.67 1178.35 271.42 C 1170.29 269.31 1163.18 264.89 1155.87 261.07 C 1148.69 257.27 1142.82 251.55 1136.84 246.16 C 1120.36 231.45 1107.55 211.97 1103.11 190.13 C 1100.64 179.94 1101.51 169.39 1101.37 159.01 C 1101.09 151.65 1102.42 144.39 1103.63 137.17 C 1106.75 124.78 1112.48 113.19 1119.72 102.71 C 1123.97 97.64 1127.45 91.88 1132.57 87.57 C 1137.42 83.41 1141.82 78.69 1147.15 75.09 C 1152.40 71.62 1157.29 67.47 1163.33 65.39 M 1160.89 128.08 C 1160.49 130.14 1160.83 132.18 1161.62 134.11 C 1163.95 134.32 1166.25 134.78 1168.49 135.52 C 1165.69 138.35 1161.59 140.66 1161.02 144.96 C 1160.14 149.62 1160.78 155.14 1164.53 158.45 C 1167.46 161.56 1172.04 161.81 1176.04 161.52 C 1181.02 161.34 1185.62 157.75 1187.20 153.07 C 1187.71 149.33 1187.94 145.19 1186.17 141.74 C 1184.40 139.59 1182.19 137.87 1180.30 135.85 C 1184.17 133.98 1188.54 135.45 1192.64 134.58 C 1193.45 132.61 1193.14 130.58 1192.45 128.63 C 1188.63 128.43 1184.81 128.40 1181.00 128.41 C 1174.28 128.52 1167.57 126.74 1160.89 128.08 M 1253.05 128.51 C 1248.65 128.76 1243.89 127.73 1239.83 129.82 C 1237.03 131.88 1240.44 135.39 1243.05 135.12 C 1246.72 134.87 1250.42 134.22 1254.11 134.83 C 1251.64 137.82 1248.18 140.09 1246.60 143.73 C 1244.18 149.02 1246.37 155.72 1251.02 159.04 C 1255.77 162.74 1263.01 162.45 1267.67 158.71 C 1272.99 154.89 1273.93 146.76 1270.56 141.38 C 1268.42 138.73 1265.27 137.18 1262.91 134.76 C 1265.75 133.91 1269.39 134.38 1271.51 131.98 C 1271.92 130.13 1270.87 128.07 1268.92 127.73 C 1263.61 126.97 1258.36 128.78 1253.05 128.51 M 1204.17 187.16 C 1201.66 189.49 1197.93 192.07 1198.58 195.98 C 1199.67 198.19 1202.70 197.89 1204.22 196.30 C 1207.82 193.45 1210.71 188.45 1216.01 189.18 C 1221.93 188.21 1225.01 194.11 1229.35 196.85 C 1230.94 198.12 1233.02 197.05 1234.80 196.87 C 1234.45 195.10 1234.94 192.90 1233.44 191.59 C 1230.43 188.50 1226.96 185.80 1223.10 183.87 C 1216.87 180.89 1209.18 182.60 1204.17 187.16 Z" />
</g>
<g id="#ffec7bff">
<path fill="#ffec7b" opacity="1.00" d=" M 190.43 60.31 C 209.19 58.07 228.62 60.44 246.01 67.98 C 275.86 79.98 299.70 105.76 309.71 136.28 C 312.49 144.92 314.51 153.90 314.37 163.02 C 314.31 171.03 314.68 179.05 314.05 187.04 C 312.18 200.67 307.48 213.80 300.82 225.81 C 293.20 240.16 281.60 251.96 268.86 261.85 C 249.84 275.36 226.50 282.81 203.18 282.71 C 192.14 281.92 180.95 281.13 170.37 277.63 C 151.54 272.15 134.51 261.14 121.39 246.62 C 106.56 231.07 97.45 210.68 93.29 189.76 C 91.80 183.27 92.45 176.59 92.36 170.00 C 92.42 165.08 92.02 160.14 92.64 155.24 C 95.49 140.29 100.19 125.45 108.53 112.60 C 116.15 99.36 127.36 88.55 139.59 79.59 C 154.83 69.59 172.13 62.04 190.43 60.31 M 154.30 116.16 C 147.56 117.85 142.38 123.14 139.10 129.06 C 136.79 133.12 135.60 137.96 136.39 142.61 C 137.23 145.66 142.13 146.48 143.56 143.47 C 145.50 138.84 146.16 133.51 149.64 129.64 C 154.07 124.16 162.19 123.27 168.49 125.56 C 173.02 127.99 176.11 132.68 177.28 137.63 C 178.04 139.83 178.12 142.49 179.86 144.21 C 181.82 145.38 185.28 145.41 186.11 142.81 C 187.08 139.45 186.38 135.83 185.32 132.58 C 183.29 126.95 179.92 121.40 174.48 118.52 C 168.53 114.66 160.99 115.04 154.30 116.16 M 229.73 120.74 C 223.51 126.53 219.17 135.04 220.33 143.72 C 222.44 144.68 225.26 146.48 227.24 144.25 C 230.04 140.00 229.75 134.25 233.33 130.36 C 238.85 122.45 252.25 122.25 257.93 130.08 C 261.30 133.59 261.30 138.70 263.03 142.99 C 265.13 146.64 272.15 144.72 271.41 140.24 C 270.29 129.74 263.59 118.60 252.71 116.11 C 244.91 114.66 235.87 115.09 229.73 120.74 M 126.78 171.82 C 126.25 177.47 126.82 183.23 128.56 188.64 C 130.26 190.08 132.91 189.24 135.00 189.51 C 182.70 189.26 230.41 189.67 278.11 189.30 C 280.39 183.79 280.54 177.72 280.25 171.84 C 261.18 171.30 242.08 171.78 223.00 171.61 C 190.93 171.76 158.84 171.33 126.78 171.82 M 129.40 190.67 C 130.02 196.74 132.89 202.23 135.52 207.63 C 139.66 215.71 145.92 222.36 152.41 228.58 C 156.53 233.09 162.07 235.80 167.27 238.83 C 172.66 242.14 178.86 243.67 184.84 245.53 C 192.31 247.89 200.24 247.81 207.98 247.66 C 217.51 247.69 226.57 244.29 235.45 241.23 C 241.28 238.37 246.85 234.91 251.99 230.96 C 256.58 226.61 261.28 222.29 265.23 217.34 C 270.76 209.22 276.23 200.54 277.75 190.66 C 228.30 190.49 178.85 190.45 129.40 190.67 Z" />
</g>
<g id="#dea500ff">
<path fill="#dea500" opacity="1.00" d=" M 154.30 116.16 C 160.99 115.04 168.53 114.66 174.48 118.52 C 179.92 121.40 183.29 126.95 185.32 132.58 C 186.38 135.83 187.08 139.45 186.11 142.81 C 185.28 145.41 181.82 145.38 179.86 144.21 C 178.12 142.49 178.04 139.83 177.28 137.63 C 176.11 132.68 173.02 127.99 168.49 125.56 C 162.19 123.27 154.07 124.16 149.64 129.64 C 146.16 133.51 145.50 138.84 143.56 143.47 C 142.13 146.48 137.23 145.66 136.39 142.61 C 135.60 137.96 136.79 133.12 139.10 129.06 C 142.38 123.14 147.56 117.85 154.30 116.16 Z" />
<path fill="#dea500" opacity="1.00" d=" M 229.73 120.74 C 235.87 115.09 244.91 114.66 252.71 116.11 C 263.59 118.60 270.29 129.74 271.41 140.24 C 272.15 144.72 265.13 146.64 263.03 142.99 C 261.30 138.70 261.30 133.59 257.93 130.08 C 252.25 122.25 238.85 122.45 233.33 130.36 C 229.75 134.25 230.04 140.00 227.24 144.25 C 225.26 146.48 222.44 144.68 220.33 143.72 C 219.17 135.04 223.51 126.53 229.73 120.74 Z" />
</g>
<g id="#2f4849ff">
<path fill="#2f4849" opacity="1.00" d=" M 1160.89 128.08 C 1167.57 126.74 1174.28 128.52 1181.00 128.41 C 1184.81 128.40 1188.63 128.43 1192.45 128.63 C 1193.14 130.58 1193.45 132.61 1192.64 134.58 C 1188.54 135.45 1184.17 133.98 1180.30 135.85 C 1182.19 137.87 1184.40 139.59 1186.17 141.74 C 1187.94 145.19 1187.71 149.33 1187.20 153.07 C 1185.62 157.75 1181.02 161.34 1176.04 161.52 C 1172.04 161.81 1167.46 161.56 1164.53 158.45 C 1160.78 155.14 1160.14 149.62 1161.02 144.96 C 1161.59 140.66 1165.69 138.35 1168.49 135.52 C 1166.25 134.78 1163.95 134.32 1161.62 134.11 C 1160.83 132.18 1160.49 130.14 1160.89 128.08 Z" />
<path fill="#2f4849" opacity="1.00" d=" M 1253.05 128.51 C 1258.36 128.78 1263.61 126.97 1268.92 127.73 C 1270.87 128.07 1271.92 130.13 1271.51 131.98 C 1269.39 134.38 1265.75 133.91 1262.91 134.76 C 1265.27 137.18 1268.42 138.73 1270.56 141.38 C 1273.93 146.76 1272.99 154.89 1267.67 158.71 C 1263.01 162.45 1255.77 162.74 1251.02 159.04 C 1246.37 155.72 1244.18 149.02 1246.60 143.73 C 1248.18 140.09 1251.64 137.82 1254.11 134.83 C 1250.42 134.22 1246.72 134.87 1243.05 135.12 C 1240.44 135.39 1237.03 131.88 1239.83 129.82 C 1243.89 127.73 1248.65 128.76 1253.05 128.51 Z" />
<path fill="#2f4849" opacity="1.00" d=" M 1204.17 187.16 C 1209.18 182.60 1216.87 180.89 1223.10 183.87 C 1226.96 185.80 1230.43 188.50 1233.44 191.59 C 1234.94 192.90 1234.45 195.10 1234.80 196.87 C 1233.02 197.05 1230.94 198.12 1229.35 196.85 C 1225.01 194.11 1221.93 188.21 1216.01 189.18 C 1210.71 188.45 1207.82 193.45 1204.22 196.30 C 1202.70 197.89 1199.67 198.19 1198.58 195.98 C 1197.93 192.07 1201.66 189.49 1204.17 187.16 Z" />
<path fill="#2f4849" opacity="1.00" d=" M 155.99 372.08 C 161.59 368.69 168.99 369.18 174.47 372.59 C 177.19 374.37 178.02 377.72 177.91 380.80 C 176.01 381.12 174.06 381.63 172.14 381.23 C 169.98 379.82 168.28 377.78 165.96 376.62 C 164.08 376.63 162.29 377.32 160.48 377.75 C 160.41 379.33 160.12 381.25 161.87 382.07 C 167.08 385.11 174.30 384.84 178.06 390.17 C 178.90 392.66 178.70 395.41 178.42 397.99 C 177.41 401.76 173.78 404.38 170.02 404.95 C 164.09 406.19 156.74 405.32 152.99 400.02 C 151.26 398.27 151.53 395.74 151.40 393.49 C 153.65 393.39 155.90 393.35 158.16 393.30 C 159.85 395.56 161.79 398.33 164.92 398.43 C 167.03 398.74 168.83 397.48 170.65 396.64 C 170.53 395.38 170.42 394.13 170.30 392.88 C 164.52 391.04 157.69 390.51 153.51 385.56 C 149.79 381.62 151.61 374.77 155.99 372.08 Z" />
<path fill="#2f4849" opacity="1.00" d=" M 127.43 370.64 C 132.19 370.10 137.58 369.47 141.79 372.29 C 144.47 373.91 146.73 376.69 146.69 379.96 C 146.90 384.98 146.87 390.02 146.71 395.04 C 146.63 399.57 142.69 403.00 138.75 404.55 C 132.11 406.86 123.04 405.10 119.90 398.19 C 118.00 392.69 118.76 386.68 118.93 380.98 C 119.10 376.05 122.84 372.02 127.43 370.64 M 128.50 378.50 C 126.47 381.95 127.48 386.20 127.23 390.01 C 127.39 392.55 126.86 396.23 129.78 397.39 C 132.67 399.46 136.84 397.93 138.30 394.89 C 138.90 390.32 138.78 385.64 138.42 381.05 C 137.67 376.65 131.54 376.40 128.50 378.50 Z" />
<path fill="#2f4849" opacity="1.00" d=" M 184.36 370.47 C 190.06 370.46 195.77 370.36 201.47 370.59 C 201.51 372.78 201.51 374.99 201.43 377.19 C 200.02 377.59 198.61 378.00 197.20 378.42 C 196.47 384.59 196.55 390.86 197.16 397.05 C 198.57 397.33 199.99 397.60 201.41 397.88 C 201.54 400.11 201.60 402.34 201.64 404.58 C 195.65 404.69 189.64 404.89 183.66 404.41 C 183.64 402.47 183.61 400.53 183.58 398.59 C 185.24 397.94 186.91 397.32 188.58 396.70 C 188.63 390.64 188.62 384.59 188.60 378.53 C 187.19 378.15 185.79 377.75 184.39 377.38 C 184.35 375.08 184.35 372.77 184.36 370.47 Z" />
<path fill="#2f4849" opacity="1.00" d=" M 206.19 370.47 C 215.02 370.45 223.84 370.43 232.67 370.49 C 232.76 372.85 232.76 375.21 232.68 377.57 C 229.63 378.02 226.56 378.30 223.48 378.39 C 223.34 387.14 223.96 395.93 223.15 404.65 C 220.71 404.66 218.26 404.68 215.82 404.73 C 215.01 396.00 215.62 387.20 215.51 378.45 C 212.17 378.35 208.84 378.00 205.56 377.37 C 205.52 375.05 205.61 372.72 206.19 370.47 Z" />
<path fill="#2f4849" opacity="1.00" d=" M 87.69 370.64 C 94.90 370.73 102.71 369.13 109.38 372.64 C 115.54 376.75 116.20 386.71 110.55 391.55 C 106.44 394.77 100.93 394.56 95.99 394.54 C 95.48 397.87 95.52 401.25 95.54 404.62 C 92.98 404.66 90.42 404.67 87.86 404.69 C 87.24 393.36 87.56 381.98 87.69 370.64 M 95.52 378.34 C 95.55 381.37 95.56 384.40 95.60 387.43 C 98.22 387.49 100.88 387.71 103.49 387.32 C 105.83 386.01 107.48 382.79 105.87 380.36 C 103.70 376.85 98.93 378.65 95.52 378.34 Z" />
<path fill="#2f4849" opacity="1.00" d=" M 237.68 370.49 C 242.98 370.45 248.28 370.40 253.58 370.54 C 253.69 372.79 253.68 375.06 253.56 377.33 C 252.27 377.56 250.98 377.80 249.70 378.04 C 249.54 384.34 249.50 390.65 249.71 396.96 C 251.28 397.55 252.89 398.11 254.29 399.08 C 255.08 400.99 254.12 402.95 253.39 404.71 C 248.12 404.67 242.86 404.65 237.59 404.72 C 236.80 402.95 235.94 401.00 236.66 399.05 C 238.09 398.12 239.71 397.54 241.30 396.95 C 241.54 390.87 241.42 384.80 241.39 378.72 C 239.57 377.81 237.16 377.20 236.41 375.08 C 236.64 373.50 237.20 372.00 237.68 370.49 Z" />
<path fill="#2f4849" opacity="1.00" d=" M 257.83 370.68 C 260.20 370.51 262.60 370.27 264.98 370.60 C 269.69 376.64 268.95 385.49 274.04 391.34 C 276.75 385.25 277.89 378.61 280.54 372.52 C 282.14 369.21 286.29 370.74 289.17 370.67 C 288.69 373.57 287.98 376.43 286.83 379.14 C 283.29 387.51 281.16 396.42 277.21 404.63 C 274.73 404.65 272.26 404.66 269.78 404.64 C 266.93 398.79 265.06 392.54 262.75 386.48 C 260.95 381.26 258.47 376.22 257.83 370.68 Z" />
<path fill="#2f4849" opacity="1.00" d=" M 294.35 370.86 C 301.88 370.05 309.50 370.58 317.06 370.50 C 320.96 370.42 319.33 375.34 319.12 377.73 C 313.70 378.54 308.21 378.20 302.75 378.22 C 302.70 380.06 301.58 382.49 303.93 383.36 C 308.44 383.64 312.96 383.33 317.47 383.59 C 317.57 385.90 317.59 388.21 317.58 390.53 C 312.52 390.73 307.44 390.30 302.41 390.96 C 302.44 392.97 302.46 394.99 302.45 397.01 C 308.29 397.84 314.20 397.26 320.07 397.42 C 320.58 399.81 320.58 402.27 320.16 404.68 C 311.57 404.63 302.97 404.80 294.38 404.59 C 294.22 393.35 294.27 382.10 294.35 370.86 Z" />
</g>
<g id="#623b0eff">
<path fill="#623b0e" opacity="1.00" d=" M 664.33 133.41 C 667.82 132.69 671.76 133.04 674.57 135.43 C 678.67 138.90 682.15 143.57 682.94 149.00 C 684.43 157.20 683.01 166.13 677.88 172.85 C 674.76 177.36 668.50 179.50 663.34 177.51 C 659.27 176.34 656.62 172.70 654.71 169.15 C 650.92 162.41 650.58 154.09 652.62 146.76 C 654.57 141.12 657.86 134.60 664.33 133.41 Z" />
<path fill="#623b0e" opacity="1.00" d=" M 748.38 133.42 C 752.82 132.26 757.78 133.76 760.99 136.99 C 768.81 146.42 769.86 160.95 763.26 171.31 C 760.06 176.51 753.28 179.85 747.35 177.49 C 744.05 176.51 741.70 173.82 739.92 171.02 C 734.21 162.24 733.96 150.25 739.21 141.20 C 741.35 137.77 744.40 134.59 748.38 133.42 Z" />
<path fill="#623b0e" opacity="1.00" d=" M 129.40 190.67 C 178.85 190.45 228.30 190.49 277.75 190.66 C 276.23 200.54 270.76 209.22 265.23 217.34 C 261.28 222.29 256.58 226.61 251.99 230.96 C 246.85 234.91 241.28 238.37 235.45 241.23 C 226.57 244.29 217.51 247.69 207.98 247.66 C 200.24 247.81 192.31 247.89 184.84 245.53 C 178.86 243.67 172.66 242.14 167.27 238.83 C 162.07 235.80 156.53 233.09 152.41 228.58 C 145.92 222.36 139.66 215.71 135.52 207.63 C 132.89 202.23 130.02 196.74 129.40 190.67 Z" />
<path fill="#623b0e" opacity="1.00" d=" M 660.45 205.27 C 662.01 204.11 664.14 204.51 665.98 204.35 C 695.67 204.47 725.37 204.31 755.06 204.43 C 760.21 203.83 762.98 211.08 759.60 214.63 C 758.18 216.86 755.37 216.72 753.06 216.77 C 724.02 216.75 694.98 216.75 665.94 216.77 C 664.03 216.63 661.89 216.88 660.26 215.71 C 657.02 213.23 656.76 207.50 660.45 205.27 Z" />
</g>
<g id="#ff1616ff">
<path fill="#ff1616" opacity="1.00" d=" M 1179.36 373.52 C 1183.70 368.19 1191.65 366.68 1197.84 369.50 C 1202.32 370.86 1205.28 375.34 1204.85 380.00 C 1202.93 380.25 1201.00 380.56 1199.09 380.35 C 1196.43 379.16 1195.36 375.16 1192.02 375.44 C 1190.12 375.29 1188.41 376.17 1186.68 376.72 C 1184.97 381.31 1185.48 386.26 1185.53 391.05 C 1185.54 393.01 1186.13 395.37 1188.20 396.12 C 1191.78 397.91 1196.69 395.87 1196.94 391.60 C 1194.88 391.02 1192.29 391.37 1190.67 389.87 C 1190.54 388.03 1190.72 386.20 1190.90 384.38 C 1195.49 384.37 1200.10 384.34 1204.71 384.40 C 1204.58 388.67 1205.35 393.13 1204.10 397.28 C 1199.42 405.02 1187.54 405.50 1180.73 400.38 C 1176.26 397.50 1177.47 391.51 1177.26 387.00 C 1177.53 382.51 1176.29 377.32 1179.36 373.52 Z" />
<path fill="#ff1616" opacity="1.00" d=" M 1110.03 369.24 C 1111.95 368.98 1113.92 368.48 1115.89 368.85 C 1118.37 369.68 1119.36 372.38 1120.76 374.37 C 1123.59 378.71 1125.67 383.64 1129.45 387.29 C 1129.86 381.16 1129.29 375.02 1129.86 368.90 C 1132.42 368.64 1135.01 368.79 1137.52 369.40 C 1137.60 380.59 1137.54 391.77 1137.56 402.96 C 1135.33 403.21 1133.10 403.31 1130.89 403.39 C 1126.00 398.05 1123.82 390.70 1118.52 385.75 C 1117.10 391.40 1117.84 397.24 1117.62 402.99 C 1115.19 403.17 1112.54 403.87 1110.28 402.68 C 1109.08 400.34 1109.75 397.53 1109.58 395.01 C 1109.86 386.42 1109.07 377.79 1110.03 369.24 Z" />
<path fill="#ff1616" opacity="1.00" d=" M 1145.47 369.30 C 1153.77 368.38 1162.26 368.43 1170.57 369.24 C 1170.57 371.52 1170.56 373.80 1170.58 376.08 C 1165.02 376.81 1159.40 376.35 1153.81 376.41 C 1153.88 378.04 1152.62 380.33 1154.16 381.52 C 1158.98 381.95 1163.92 381.10 1168.68 382.37 C 1168.71 384.50 1168.73 386.62 1168.75 388.76 C 1163.67 389.58 1158.52 389.10 1153.41 389.36 C 1153.45 391.41 1153.48 393.47 1153.51 395.53 C 1159.54 396.17 1165.92 394.47 1171.69 396.75 C 1171.44 399.08 1172.74 403.40 1169.02 403.24 C 1161.17 403.23 1153.28 403.69 1145.46 402.90 C 1145.44 391.70 1145.43 380.50 1145.47 369.30 Z" />
<path fill="#ff1616" opacity="1.00" d=" M 1220.25 371.38 C 1221.01 368.48 1224.50 368.48 1226.91 368.81 C 1229.28 369.05 1229.96 371.52 1230.73 373.38 C 1232.87 379.26 1234.96 385.17 1237.21 391.02 C 1238.64 394.98 1240.58 398.83 1240.97 403.09 C 1238.70 403.22 1236.40 403.54 1234.16 403.08 C 1232.86 401.30 1232.06 399.19 1230.60 397.54 C 1226.68 397.26 1222.74 397.42 1218.82 397.64 C 1218.09 399.31 1217.79 401.31 1216.48 402.65 C 1214.31 403.83 1211.67 403.11 1209.33 403.30 C 1209.21 398.92 1211.55 395.10 1212.89 391.07 C 1215.16 384.44 1217.74 377.92 1220.25 371.38 M 1223.94 380.63 C 1223.16 383.80 1222.23 386.95 1221.95 390.23 C 1224.04 390.04 1227.25 391.59 1228.47 389.14 C 1227.78 386.26 1226.76 383.48 1226.08 380.61 C 1225.35 380.65 1224.64 380.66 1223.94 380.63 Z" />
<path fill="#ff1616" opacity="1.00" d=" M 1244.20 369.30 C 1248.00 368.17 1252.07 368.93 1256.00 368.74 C 1260.57 368.97 1265.29 368.11 1269.77 369.34 C 1270.97 371.01 1270.24 373.34 1270.60 375.29 C 1267.74 376.93 1264.41 376.42 1261.28 376.45 C 1260.25 385.27 1261.11 394.17 1260.71 403.02 C 1258.21 403.34 1255.69 403.36 1253.22 403.00 C 1252.08 394.21 1252.99 385.31 1252.67 376.48 C 1249.68 376.02 1245.66 377.69 1243.52 375.05 C 1243.60 373.19 1242.78 370.78 1244.20 369.30 Z" />
<path fill="#ff1616" opacity="1.00" d=" M 1274.53 370.03 C 1275.46 368.53 1277.46 368.86 1278.98 368.72 C 1282.60 368.76 1286.28 368.45 1289.89 369.00 C 1292.24 369.46 1291.49 372.29 1291.60 374.01 C 1291.74 376.20 1288.90 376.19 1287.53 376.96 C 1287.24 382.98 1287.37 389.01 1287.43 395.04 C 1288.86 395.78 1290.31 396.53 1291.74 397.32 C 1291.71 399.16 1291.68 401.00 1291.67 402.85 C 1285.92 403.57 1280.06 403.57 1274.33 402.88 C 1274.30 401.07 1274.22 399.26 1274.38 397.47 C 1275.47 396.25 1277.13 395.78 1278.55 395.01 C 1278.66 389.03 1278.65 383.04 1278.56 377.05 C 1277.13 376.38 1275.73 375.71 1274.34 375.04 C 1274.36 373.37 1274.34 371.69 1274.53 370.03 Z" />
<path fill="#ff1616" opacity="1.00" d=" M 1295.43 368.79 C 1297.57 368.75 1299.76 368.58 1301.92 368.90 C 1303.49 369.34 1303.97 371.20 1304.59 372.53 C 1306.42 378.18 1308.44 383.78 1309.86 389.56 C 1310.62 389.57 1311.39 389.59 1312.18 389.61 C 1313.66 384.14 1315.45 378.75 1317.21 373.36 C 1317.87 371.74 1318.39 369.72 1320.10 368.88 C 1322.22 368.58 1324.37 368.78 1326.54 368.85 C 1326.46 372.27 1324.91 375.37 1323.79 378.54 C 1321.35 384.77 1319.35 391.16 1317.21 397.50 C 1316.37 399.50 1315.79 401.87 1313.88 403.14 C 1311.93 403.45 1309.95 403.43 1308.03 403.19 C 1306.45 402.20 1305.93 400.33 1305.28 398.72 C 1302.78 391.78 1300.51 384.75 1297.88 377.86 C 1296.79 374.92 1295.44 371.98 1295.43 368.79 Z" />
<path fill="#ff1616" opacity="1.00" d=" M 1331.89 369.26 C 1340.14 368.43 1348.55 368.40 1356.80 369.25 C 1357.64 371.69 1357.40 374.19 1356.17 376.46 C 1350.86 376.43 1345.56 376.50 1340.26 376.39 C 1340.31 378.17 1340.41 379.96 1340.63 381.75 C 1345.38 381.65 1350.21 381.26 1354.90 382.31 C 1355.44 384.43 1355.41 386.63 1355.10 388.79 C 1350.05 389.54 1344.94 389.15 1339.87 389.32 C 1339.53 391.49 1339.42 393.74 1340.62 395.70 C 1346.27 395.54 1351.93 395.67 1357.59 395.59 C 1357.72 398.06 1357.76 400.54 1357.75 403.02 C 1350.17 403.59 1342.56 403.22 1334.97 403.30 C 1332.98 403.65 1331.01 402.12 1331.55 400.02 C 1331.72 389.77 1331.12 379.48 1331.89 369.26 Z" />
</g>
<g id="#ff914eff">
<path fill="#ff914e" opacity="1.00" d=" M 598.79 368.87 C 601.36 368.95 604.81 367.94 606.53 370.51 C 610.41 375.65 612.98 381.68 617.14 386.64 C 618.27 380.85 617.06 374.91 618.16 369.11 C 620.50 368.85 622.85 368.78 625.20 368.85 C 625.79 380.29 625.65 391.78 625.27 403.22 C 622.86 402.99 619.71 404.21 617.92 402.07 C 613.58 396.69 611.19 389.96 606.53 384.82 C 606.06 390.88 606.81 396.98 606.00 403.02 C 603.57 403.23 601.14 403.30 598.72 403.24 C 598.35 391.80 598.21 380.31 598.79 368.87 Z" />
<path fill="#ff914e" opacity="1.00" d=" M 633.38 369.22 C 641.61 368.35 649.93 368.60 658.19 369.03 C 658.48 371.38 658.48 373.76 658.18 376.11 C 652.81 376.68 647.41 376.32 642.03 376.43 C 641.72 378.01 641.42 379.59 641.14 381.19 C 645.95 382.33 650.98 381.09 655.76 382.39 C 657.37 384.15 656.18 386.93 656.30 389.10 C 651.29 389.35 646.28 389.23 641.28 389.36 C 641.37 391.40 641.45 393.44 641.53 395.49 C 647.51 396.13 653.72 394.73 659.52 396.80 C 659.44 398.90 659.36 401.01 659.27 403.12 C 650.64 403.33 641.95 403.72 633.35 402.86 C 633.30 391.65 633.26 380.43 633.38 369.22 Z" />
<path fill="#ff914e" opacity="1.00" d=" M 666.00 369.02 C 668.53 368.75 671.09 368.77 673.62 369.11 C 673.77 376.08 673.44 383.07 673.67 390.05 C 673.67 392.54 674.82 395.14 677.22 396.18 C 679.74 397.32 682.30 395.67 684.58 394.71 C 685.18 386.25 684.02 377.71 685.38 369.30 C 687.64 368.84 689.95 368.70 692.27 368.80 C 692.98 375.84 692.44 382.93 692.64 389.99 C 692.50 393.24 693.09 397.07 690.59 399.63 C 686.50 404.08 679.67 404.11 674.16 403.04 C 669.46 402.09 665.73 397.89 665.71 393.04 C 665.64 385.04 665.32 377.00 666.00 369.02 Z" />
<path fill="#ff914e" opacity="1.00" d=" M 698.17 369.21 C 707.00 368.45 715.97 368.37 724.80 369.25 C 724.81 371.42 726.44 374.81 723.75 375.96 C 721.21 376.65 718.55 376.38 715.97 376.44 C 715.16 385.23 715.86 394.07 715.63 402.88 C 712.91 403.35 710.14 403.36 707.44 402.85 C 707.40 394.15 707.72 385.44 707.32 376.74 C 704.28 376.56 701.25 376.51 698.23 376.48 C 697.39 374.11 697.45 371.60 698.17 369.21 Z" />
<path fill="#ff914e" opacity="1.00" d=" M 730.31 369.26 C 736.44 368.56 742.69 368.39 748.81 369.32 C 753.56 369.87 757.83 374.12 757.83 379.01 C 757.84 381.52 757.97 384.35 756.38 386.47 C 754.92 388.30 753.03 389.73 751.27 391.26 C 753.51 395.20 756.87 398.53 758.20 402.97 C 755.22 403.10 751.48 404.31 749.13 401.84 C 745.32 397.50 741.42 392.17 742.57 386.04 C 744.79 385.17 747.21 384.58 749.13 383.09 C 750.33 381.20 749.99 378.30 748.16 376.90 C 744.99 375.96 741.61 376.46 738.36 376.41 C 738.09 385.29 738.81 394.19 737.96 403.05 C 735.40 403.34 732.82 403.31 730.29 402.92 C 730.13 391.70 730.09 380.47 730.31 369.26 Z" />
<path fill="#ff914e" opacity="1.00" d=" M 773.37 371.38 C 774.97 367.50 782.35 367.54 783.19 371.98 C 785.44 378.12 787.78 384.24 789.90 390.43 C 791.40 394.61 793.48 398.61 794.11 403.06 C 791.82 403.19 789.49 403.58 787.25 403.03 C 786.10 401.36 785.31 399.48 784.18 397.81 C 780.88 397.01 777.41 397.35 774.05 397.41 C 770.83 397.15 771.04 401.66 768.80 403.05 C 766.59 403.70 764.28 403.12 762.07 402.88 C 762.39 400.75 762.81 398.63 763.72 396.67 C 767.49 388.46 769.28 379.46 773.37 371.38 M 777.54 380.01 C 776.50 383.15 775.15 386.32 775.23 389.68 C 776.71 391.51 779.76 390.31 781.83 390.02 C 780.82 386.55 780.46 382.50 777.54 380.01 Z" />
<path fill="#ff914e" opacity="1.00" d=" M 799.50 369.51 C 801.65 368.15 804.25 368.92 806.60 369.13 C 807.84 377.94 806.01 386.83 807.38 395.66 C 812.61 395.72 817.87 395.42 823.08 396.13 C 823.49 398.43 823.50 400.78 823.28 403.11 C 815.87 403.42 808.44 403.46 801.03 403.20 C 798.90 403.29 798.84 400.53 798.69 399.03 C 798.51 392.02 798.78 385.01 798.62 378.00 C 798.69 375.16 798.29 372.17 799.50 369.51 Z" />
</g>
</svg>
